<mxfile host="app.diagrams.net" modified="2021-08-26T12:46:24.421Z" agent="5.0 (Macintosh; Intel Mac OS X 10_15_7) AppleWebKit/537.36 (KHTML, like Gecko) Chrome/92.0.4515.159 Safari/537.36" etag="QXrHtTaa2s0TmcGar_yN" version="14.9.9" type="github">
  <diagram id="M3j8pxnVSpy2cYYRyJaD" name="第 1 页">
    <mxGraphModel dx="1355" dy="1921" grid="0" gridSize="10" guides="1" tooltips="1" connect="1" arrows="1" fold="1" page="0" pageScale="1" pageWidth="827" pageHeight="1169" math="0" shadow="0">
      <root>
        <mxCell id="0" />
        <mxCell id="1" parent="0" />
        <mxCell id="Kl6BwcF5UKSUdVYUfAfF-35" value="" style="rounded=1;whiteSpace=wrap;html=1;absoluteArcSize=1;arcSize=14;strokeWidth=2;shadow=0;fillColor=#fff2cc;strokeColor=#d6b656;" parent="1" vertex="1">
          <mxGeometry x="179.99" y="490" width="300" height="70" as="geometry" />
        </mxCell>
        <mxCell id="Kl6BwcF5UKSUdVYUfAfF-3" value="" style="rounded=1;whiteSpace=wrap;html=1;absoluteArcSize=1;arcSize=14;strokeWidth=2;shadow=0;fillColor=#d5e8d4;strokeColor=#82b366;" parent="1" vertex="1">
          <mxGeometry x="184.99000000000004" y="730" width="300" height="70" as="geometry" />
        </mxCell>
        <mxCell id="Kl6BwcF5UKSUdVYUfAfF-2" value="&lt;b&gt;MySQL&lt;/b&gt;" style="strokeWidth=2;html=1;shape=mxgraph.flowchart.direct_data;whiteSpace=wrap;shadow=1;fillColor=#f8cecc;strokeColor=#b85450;" parent="1" vertex="1">
          <mxGeometry x="291.86" y="742.5" width="81.25" height="45" as="geometry" />
        </mxCell>
        <mxCell id="Kl6BwcF5UKSUdVYUfAfF-27" style="edgeStyle=orthogonalEdgeStyle;rounded=0;orthogonalLoop=1;jettySize=auto;html=1;exitX=0.25;exitY=0;exitDx=0;exitDy=0;entryX=0.141;entryY=0.986;entryDx=0;entryDy=0;entryPerimeter=0;strokeColor=none;endArrow=none;endFill=0;" parent="1" source="Kl6BwcF5UKSUdVYUfAfF-5" target="Kl6BwcF5UKSUdVYUfAfF-11" edge="1">
          <mxGeometry relative="1" as="geometry" />
        </mxCell>
        <mxCell id="Kl6BwcF5UKSUdVYUfAfF-5" value="" style="rounded=1;whiteSpace=wrap;html=1;absoluteArcSize=1;arcSize=14;strokeWidth=2;shadow=0;fillColor=#ffe6cc;strokeColor=#d79b00;" parent="1" vertex="1">
          <mxGeometry x="174.99" y="650" width="300" height="70" as="geometry" />
        </mxCell>
        <mxCell id="Kl6BwcF5UKSUdVYUfAfF-9" value="Springboot&lt;br&gt;数据监控&lt;br&gt;（更新历史表，觉察变动信息，按需求转发）" style="rounded=0;whiteSpace=wrap;html=1;absoluteArcSize=1;arcSize=14;strokeWidth=2;shadow=0;fillColor=#f5f5f5;strokeColor=#666666;fontColor=#333333;" parent="1" vertex="1">
          <mxGeometry x="177.48000000000002" y="655" width="150.01" height="60" as="geometry" />
        </mxCell>
        <mxCell id="Kl6BwcF5UKSUdVYUfAfF-11" value="" style="rounded=1;whiteSpace=wrap;html=1;absoluteArcSize=1;arcSize=14;strokeWidth=2;shadow=0;fillColor=#dae8fc;strokeColor=#6c8ebf;" parent="1" vertex="1">
          <mxGeometry x="177.48000000000002" y="580" width="295.01" height="50" as="geometry" />
        </mxCell>
        <mxCell id="Kl6BwcF5UKSUdVYUfAfF-12" value="Springboot，云效Api&lt;br&gt;数据获取" style="rounded=0;whiteSpace=wrap;html=1;absoluteArcSize=1;arcSize=14;strokeWidth=2;shadow=0;fillColor=#f5f5f5;strokeColor=#666666;fontColor=#333333;" parent="1" vertex="1">
          <mxGeometry x="199.99" y="505" width="130" height="40" as="geometry" />
        </mxCell>
        <mxCell id="Kl6BwcF5UKSUdVYUfAfF-13" value="Springboot，微信机器人&lt;br&gt;数据转发" style="rounded=0;whiteSpace=wrap;html=1;absoluteArcSize=1;arcSize=14;strokeWidth=2;shadow=0;fillColor=#f5f5f5;strokeColor=#666666;fontColor=#333333;" parent="1" vertex="1">
          <mxGeometry x="334.99" y="505" width="140" height="40" as="geometry" />
        </mxCell>
        <mxCell id="Kl6BwcF5UKSUdVYUfAfF-23" value="RocketMQ&lt;br&gt;消息队列暂存消息" style="rounded=0;whiteSpace=wrap;html=1;absoluteArcSize=1;arcSize=14;strokeWidth=2;shadow=0;fillColor=#f5f5f5;strokeColor=#666666;fontColor=#333333;" parent="1" vertex="1">
          <mxGeometry x="269.98" y="586.25" width="115.01" height="37.5" as="geometry" />
        </mxCell>
        <mxCell id="aEFTFNg7kIHRCmJKgCSD-1" value="数据获取和&lt;br&gt;转发层" style="shape=dataStorage;whiteSpace=wrap;html=1;fixedSize=1;fillColor=#fff2cc;strokeColor=#d6b656;" parent="1" vertex="1">
          <mxGeometry x="74.99" y="490" width="105" height="70" as="geometry" />
        </mxCell>
        <mxCell id="aEFTFNg7kIHRCmJKgCSD-2" value="&lt;span&gt;消息中间件&lt;/span&gt;" style="shape=dataStorage;whiteSpace=wrap;html=1;fixedSize=1;fillColor=#dae8fc;strokeColor=#6c8ebf;" parent="1" vertex="1">
          <mxGeometry x="69.99" y="580" width="105" height="50" as="geometry" />
        </mxCell>
        <mxCell id="aEFTFNg7kIHRCmJKgCSD-3" value="&lt;span&gt;监控层&lt;/span&gt;" style="shape=dataStorage;whiteSpace=wrap;html=1;fixedSize=1;fillColor=#ffe6cc;strokeColor=#d79b00;" parent="1" vertex="1">
          <mxGeometry x="69.99" y="650" width="105" height="70" as="geometry" />
        </mxCell>
        <mxCell id="aEFTFNg7kIHRCmJKgCSD-4" value="&lt;span&gt;数据层&lt;/span&gt;" style="shape=dataStorage;whiteSpace=wrap;html=1;fixedSize=1;fillColor=#d5e8d4;strokeColor=#82b366;" parent="1" vertex="1">
          <mxGeometry x="74.99" y="730" width="105" height="70" as="geometry" />
        </mxCell>
        <mxCell id="aEFTFNg7kIHRCmJKgCSD-12" value="Springboot&lt;br&gt;数据更新&lt;br&gt;(消费最新数据，更新数据库，并提供查询接口)" style="rounded=0;whiteSpace=wrap;html=1;absoluteArcSize=1;arcSize=14;strokeWidth=2;shadow=0;fillColor=#f5f5f5;strokeColor=#666666;fontColor=#333333;" parent="1" vertex="1">
          <mxGeometry x="332.49" y="655" width="140" height="60" as="geometry" />
        </mxCell>
        <mxCell id="xerEIYaysSl3NR9X-NJZ-2" value="" style="shape=umlLifeline;participant=umlActor;perimeter=lifelinePerimeter;whiteSpace=wrap;html=1;container=1;collapsible=0;recursiveResize=0;verticalAlign=top;spacingTop=36;outlineConnect=0;" parent="1" vertex="1">
          <mxGeometry x="30" y="-220" width="20" height="360" as="geometry" />
        </mxCell>
        <mxCell id="xerEIYaysSl3NR9X-NJZ-3" value=":Object" style="shape=umlLifeline;perimeter=lifelinePerimeter;whiteSpace=wrap;html=1;container=1;collapsible=0;recursiveResize=0;outlineConnect=0;" parent="1" vertex="1">
          <mxGeometry x="130" y="-210" width="100" height="350" as="geometry" />
        </mxCell>
        <mxCell id="xerEIYaysSl3NR9X-NJZ-4" value=":Object" style="shape=umlLifeline;perimeter=lifelinePerimeter;whiteSpace=wrap;html=1;container=1;collapsible=0;recursiveResize=0;outlineConnect=0;" parent="1" vertex="1">
          <mxGeometry x="340" y="-210" width="100" height="350" as="geometry" />
        </mxCell>
        <mxCell id="xerEIYaysSl3NR9X-NJZ-5" value=":Object" style="shape=umlLifeline;perimeter=lifelinePerimeter;whiteSpace=wrap;html=1;container=1;collapsible=0;recursiveResize=0;outlineConnect=0;" parent="1" vertex="1">
          <mxGeometry x="570" y="-210" width="100" height="350" as="geometry" />
        </mxCell>
        <mxCell id="iTrxDIxSOVpFifdG9iTk-1" value="" style="outlineConnect=0;dashed=0;verticalLabelPosition=bottom;verticalAlign=top;align=center;html=1;shape=mxgraph.aws3.mysql_db_instance;fillColor=#2E73B8;gradientColor=none;" parent="1" vertex="1">
          <mxGeometry x="272" width="60" height="64.5" as="geometry" />
        </mxCell>
        <mxCell id="iTrxDIxSOVpFifdG9iTk-2" value="" style="aspect=fixed;html=1;points=[];align=center;image;fontSize=12;image=img/lib/mscae/Cache_Redis_Product.svg;" parent="1" vertex="1">
          <mxGeometry x="250" y="-120" width="50" height="42" as="geometry" />
        </mxCell>
        <mxCell id="iTrxDIxSOVpFifdG9iTk-3" value="" style="shape=image;html=1;verticalAlign=top;verticalLabelPosition=bottom;labelBackgroundColor=#ffffff;imageAspect=0;aspect=fixed;image=https://cdn4.iconfinder.com/data/icons/logos-brands-5/24/go-128.png" parent="1" vertex="1">
          <mxGeometry x="450" y="-120" width="128" height="128" as="geometry" />
        </mxCell>
        <mxCell id="Tnx-q1CDUx183G_uHan9-1" value="Pod" style="ellipse;whiteSpace=wrap;html=1;aspect=fixed;fillColor=#fff2cc;strokeWidth=2;" vertex="1" parent="1">
          <mxGeometry x="-167" y="-988" width="80" height="80" as="geometry" />
        </mxCell>
        <mxCell id="Tnx-q1CDUx183G_uHan9-2" value="Container" style="triangle;whiteSpace=wrap;html=1;strokeWidth=2;fillColor=#dae8fc;" vertex="1" parent="1">
          <mxGeometry x="92.49" y="-1109" width="60" height="80" as="geometry" />
        </mxCell>
        <mxCell id="Tnx-q1CDUx183G_uHan9-3" value="" style="endArrow=classic;html=1;exitX=1;exitY=0.5;exitDx=0;exitDy=0;entryX=0;entryY=0.5;entryDx=0;entryDy=0;dashed=1;" edge="1" parent="1" source="Tnx-q1CDUx183G_uHan9-1" target="Tnx-q1CDUx183G_uHan9-2">
          <mxGeometry width="50" height="50" relative="1" as="geometry">
            <mxPoint x="216" y="-838" as="sourcePoint" />
            <mxPoint x="266" y="-888" as="targetPoint" />
          </mxGeometry>
        </mxCell>
        <mxCell id="Tnx-q1CDUx183G_uHan9-4" value="&lt;span&gt;Container&lt;/span&gt;" style="triangle;whiteSpace=wrap;html=1;strokeWidth=2;fillColor=#dae8fc;" vertex="1" parent="1">
          <mxGeometry x="92.49" y="-988" width="60" height="80" as="geometry" />
        </mxCell>
        <mxCell id="Tnx-q1CDUx183G_uHan9-5" value="" style="endArrow=classic;html=1;exitX=1;exitY=0.5;exitDx=0;exitDy=0;entryX=0;entryY=0.5;entryDx=0;entryDy=0;dashed=1;" edge="1" parent="1" source="Tnx-q1CDUx183G_uHan9-1" target="Tnx-q1CDUx183G_uHan9-4">
          <mxGeometry width="50" height="50" relative="1" as="geometry">
            <mxPoint x="-77" y="-938" as="sourcePoint" />
            <mxPoint x="102.49000000000001" y="-1059" as="targetPoint" />
          </mxGeometry>
        </mxCell>
        <mxCell id="Tnx-q1CDUx183G_uHan9-6" value="&lt;span&gt;Container&lt;/span&gt;" style="triangle;whiteSpace=wrap;html=1;strokeWidth=2;fillColor=#dae8fc;" vertex="1" parent="1">
          <mxGeometry x="92.49" y="-864" width="60" height="80" as="geometry" />
        </mxCell>
        <mxCell id="Tnx-q1CDUx183G_uHan9-7" value="" style="endArrow=classic;html=1;exitX=1;exitY=0.5;exitDx=0;exitDy=0;entryX=0;entryY=0.5;entryDx=0;entryDy=0;dashed=1;" edge="1" parent="1" source="Tnx-q1CDUx183G_uHan9-1" target="Tnx-q1CDUx183G_uHan9-6">
          <mxGeometry width="50" height="50" relative="1" as="geometry">
            <mxPoint x="-77" y="-938" as="sourcePoint" />
            <mxPoint x="102.49000000000001" y="-938" as="targetPoint" />
          </mxGeometry>
        </mxCell>
      </root>
    </mxGraphModel>
  </diagram>
</mxfile>
